<?xml version="1.0" encoding="UTF-8"?>
<!DOCTYPE svg PUBLIC "-//W3C//DTD SVG 1.1//EN" "http://www.w3.org/Graphics/SVG/1.1/DTD/svg11.dtd">
<!-- Creator: CorelDRAW -->
<svg xmlns="http://www.w3.org/2000/svg" xml:space="preserve" width="25.9687in" height="10.5313in" version="1.1" style="shape-rendering:geometricPrecision; text-rendering:geometricPrecision; image-rendering:optimizeQuality; fill-rule:evenodd; clip-rule:evenodd"
viewBox="0 0 25968.75 10531.26"
 xmlns:xlink="http://www.w3.org/1999/xlink"
 xmlns:xodm="http://www.corel.com/coreldraw/odm/2003">
 <defs>
  <style type="text/css">
   <![CDATA[
    .str2 {stroke:#6E07F3;stroke-width:93.75;stroke-miterlimit:2.61313}
    .str0 {stroke:#141C3A;stroke-width:83.33;stroke-miterlimit:2.61313}
    .str1 {stroke:#6E07F3;stroke-width:83.33;stroke-miterlimit:2.61313}
    .str3 {stroke:#E94560;stroke-width:83.33;stroke-miterlimit:2.61313}
    .str5 {stroke:#141C3A;stroke-width:87.5;stroke-miterlimit:2.61313}
    .str4 {stroke:#141C3A;stroke-width:83.33;stroke-linecap:square;stroke-miterlimit:2.61313}
    .fil2 {fill:none}
    .fil3 {fill:#141C3A}
    .fil5 {fill:#293347}
    .fil1 {fill:#6E07F3}
    .fil4 {fill:#E94560}
    .fil7 {fill:#FFFFFE}
    .fil0 {fill:white}
    .fil8 {fill:#141C3A;fill-rule:nonzero}
    .fil6 {fill:#535B6B;fill-opacity:0.541176}
   ]]>
  </style>
 </defs>
 <g id="Layer_x0020_1">
  <metadata id="CorelCorpID_0Corel-Layer"/>
  <g id="_2198088719472">
   <g id="Assets">
    <g id="Group-28">
     <path id="Case" class="fil0 str0" d="M15479.1 1312.5l-10145.7 0c-80.57,0 -153.5,32.63 -206.28,85.39 -52.8,52.77 -85.45,125.68 -85.45,206.21l0 6948.04c0,80.49 32.66,153.41 85.47,206.19 52.79,52.76 125.71,85.41 206.26,85.41l10145.7 0c80.58,0 153.5,-32.63 206.28,-85.39 52.8,-52.77 85.44,-125.68 85.44,-206.21l0 -6948.04c0,-80.49 -32.66,-153.41 -85.47,-206.19 -52.79,-52.76 -125.71,-85.41 -206.26,-85.41z"/>
     <path id="Case_0" class="fil1 str1" d="M14979.23 1958.33l-9156.39 0c-34.48,0 -65.73,14 -88.36,36.67 -22.59,22.63 -36.57,53.88 -36.57,88.4l0 5176.94c0,34.53 13.98,65.78 36.57,88.41 22.61,22.65 53.86,36.65 88.36,36.65l9156.39 0c34.48,0 65.74,-14 88.36,-36.67 22.59,-22.63 36.57,-53.88 36.57,-88.4l0 -5176.94c0,-34.53 -13.98,-65.78 -36.57,-88.41 -22.61,-22.65 -53.86,-36.65 -88.37,-36.65z"/>
     <polygon id="Case_1" class="fil0 str0" points="11180.72,8843.75 9642.19,8843.75 9538.32,10187.5 11284.59,10187.5 "/>
     <path id="Keyboard" class="fil0 str0" d="M11916.65 10489.58l-3010.37 0c-2.88,0 -5.48,-1.16 -7.37,-3.04 -1.91,-1.91 -3.07,-4.56 -3.07,-7.47l0 -140.53c0,-41.72 16.91,-79.47 44.25,-106.8 27.35,-27.33 65.13,-44.24 106.86,-44.24l2729.04 0c41.72,0 79.5,16.91 106.85,44.26 27.34,27.33 44.26,65.08 44.26,106.79l0 140.53c0,2.92 -1.15,5.56 -3.05,7.47 -1.89,1.89 -4.5,3.04 -7.39,3.04z"/>
     <circle id="Oval-6" class="fil2 str0" cx="10411.46" cy="8171.88" r="192.71"/>
     <path class="fil0 str0" d="M4302.09 6437.5l1562.5 0c138.05,-0 250,111.95 250,250l-0 3552.09c0,138.04 -111.95,250 -250,250l-1562.5 0c-138.04,-0 -250,-111.96 -250,-250l-0 -3552.08c0,-138.05 111.96,-250 250,-250z"/>
     <polygon id="Case_2" class="fil3 str0" points="6114.58,6895.83 4052.09,6895.83 4052.09,9888.54 6114.58,9888.54 "/>
     <path class="fil3" d="M4635.42 6625l906.25 0c23.01,0 41.67,18.66 41.67,41.67l-0 0c0,23 -18.65,41.66 -41.66,41.66l-906.25 0c-23,-0 -41.66,-18.66 -41.66,-41.67l-0.01 0c0.01,-23.01 18.67,-41.67 41.67,-41.67z"/>
     <path class="fil3" d="M5087.5 10062.5l0 0c65.57,0 118.75,53.18 118.75,118.75l-0 0c0,65.57 -53.17,118.74 -118.74,118.74l-0 0c-65.57,-0 -118.74,-53.18 -118.74,-118.75l-0.01 0c0.01,-65.57 53.19,-118.75 118.76,-118.75z"/>
     <circle id="Oval-6_3" class="fil1 str1" cx="4635.42" cy="8385.41" r="156.25"/>
     <g id="Group-73">
      <path class="fil0" d="M5041.67 8114.58l645.83 0c23.01,0 41.67,18.66 41.67,41.67l-0 0c0,23.01 -18.65,41.67 -41.66,41.67l-645.83 0c-23,0 -41.66,-18.66 -41.66,-41.67l-0 0c0,-23.01 18.66,-41.67 41.67,-41.67z"/>
      <path class="fil0" d="M5041.67 8343.75l437.5 0c23.01,0 41.67,18.66 41.67,41.67l-0 0c0,23.01 -18.65,41.67 -41.66,41.67l-437.5 0c-23,0 -41.66,-18.66 -41.66,-41.67l-0 0c0,-23.01 18.66,-41.67 41.67,-41.67z"/>
      <path class="fil0" d="M5041.67 8572.91l229.17 0c23.01,0 41.67,18.66 41.67,41.67l0 0c0,23.01 -18.66,41.67 -41.67,41.67l-229.17 0c-23,-0 -41.66,-18.66 -41.66,-41.67l-0 0c0,-23.01 18.66,-41.67 41.67,-41.67z"/>
     </g>
     <circle id="Oval-7" class="fil4 str0" cx="2994.79" cy="6807.29" r="1598.96"/>
     <path id="Case_4" class="fil0 str0" d="M20208.43 4875l-7125.19 0c-80.54,0 -153.43,32.65 -206.19,85.42 -52.76,52.78 -85.39,125.7 -85.39,206.24l0 4593.76c0,80.5 32.64,153.42 85.42,206.22 52.76,52.78 125.65,85.44 206.15,85.44l7125.19 0c80.54,0 153.43,-32.64 206.18,-85.42 52.76,-52.78 85.39,-125.7 85.39,-206.24l0 -4593.76c0,-80.49 -32.64,-153.42 -85.42,-206.22 -52.76,-52.78 -125.65,-85.44 -206.15,-85.44z"/>
     <path id="Keyboard_5" class="fil0 str0" d="M21020.91 10052.08l-8750.17 0c-2.85,0 -5.42,1.16 -7.28,3.03 -1.89,1.89 -3.05,4.51 -3.05,7.39l0 208.33c0,60.41 24.48,115.1 64.08,154.68 39.6,39.59 94.31,64.07 154.74,64.07l8333.18 0c60.43,0 115.14,-24.48 154.74,-64.07 39.6,-39.59 64.09,-94.27 64.09,-154.68l0 -208.33c0,-2.88 -1.18,-5.49 -3.07,-7.38 -1.86,-1.87 -4.42,-3.04 -7.26,-3.04z"/>
     <path id="Notch" class="fil0 str0" d="M17221.77 10056.75l-1166.49 0c20.3,53.49 54.41,100.17 97.94,135.72 55.61,45.4 126.63,72.61 204,72.61l562.6 0c77.35,0 148.37,-27.22 203.98,-72.62 43.54,-35.55 77.65,-82.23 97.96,-135.71z"/>
     <path class="fil4" d="M13177.08 5322.92l6931.31 0c46.02,-0 83.33,37.31 83.33,83.33l-0 4123.43c0,46.01 -37.31,83.33 -83.33,83.33l-6931.31 0c-46.02,0 -83.33,-37.32 -83.33,-83.33l0 -4123.43c0,-46.02 37.32,-83.34 83.33,-83.34z"/>
     <g id="Group-69">
      <circle id="Oval-3" class="fil5" cx="10177.08" cy="2052.08" r="52.08"/>
      <path id="Case_6" class="fil3 str0" d="M11927.08 614.58l-4645.83 0 0 4531.27c0,57.55 23.31,109.62 61.02,147.31 37.72,37.71 89.84,61.01 147.41,61.01l4228.98 0c57.56,0 109.67,-23.32 147.39,-61.02 37.71,-37.7 61.04,-89.78 61.04,-147.3l0 -4531.27z"/>
      <path id="Case_7" class="fil0 str0" d="M11718.66 41.67l-4228.98 0c-57.56,0 -109.67,23.32 -147.39,61.03 -37.71,37.71 -61.04,89.8 -61.04,147.34l0 281.21 4645.83 0 0 -281.21c0,-57.52 -23.33,-109.62 -61.06,-147.33 -37.72,-37.71 -89.82,-61.04 -147.37,-61.04z"/>
      <circle id="Oval-5" class="fil3" cx="7645.83" cy="291.67" r="93.75"/>
      <circle id="Oval-5_8" class="fil1" cx="7958.33" cy="291.67" r="93.75"/>
      <circle id="Oval-5_9" class="fil4" cx="8270.83" cy="291.67" r="93.75"/>
      <g id="Group-72">
       <path class="fil6" d="M7822.92 3572.92l104.17 0c23.01,0 41.67,18.66 41.67,41.67l-0 -0c0,23.01 -18.65,41.67 -41.66,41.67l-104.17 0c-23,0 -41.66,-18.66 -41.66,-41.67l-0.01 -0c0.01,-23 18.67,-41.66 41.67,-41.66z"/>
       <path class="fil6" d="M7822.92 1489.58l104.17 0c23.01,0.01 41.67,18.67 41.67,41.67l-0 -0c0,23.01 -18.65,41.67 -41.66,41.67l-104.17 -0c-23,0 -41.66,-18.65 -41.66,-41.66l-0.01 -0c0.01,-23 18.67,-41.66 41.67,-41.66z"/>
       <path id="Rectangle-11" class="fil1" d="M8135.42 1489.58l281.25 0c23.01,0 41.67,18.66 41.67,41.67 0,23.01 -18.65,41.67 -41.67,41.67l-281.25 0c-23.01,0 -41.67,-18.65 -41.67,-41.67 0,-23.01 18.66,-41.67 41.67,-41.67z"/>
       <path id="Rectangle-11_10" class="fil4" d="M8604.17 1489.58l281.25 0c23.01,0 41.67,18.66 41.67,41.67 0,23.01 -18.65,41.67 -41.67,41.67l-281.25 0c-23.01,0 -41.67,-18.65 -41.67,-41.67 0,-23.01 18.65,-41.67 41.67,-41.67z"/>
       <path id="Rectangle-11_11" class="fil1" d="M9072.92 1489.58l520.83 0c23.01,0 41.67,18.66 41.67,41.67 0,23.01 -18.66,41.67 -41.67,41.67l-520.83 0c-23.01,0 -41.67,-18.65 -41.67,-41.67 0,-23.01 18.66,-41.67 41.67,-41.67z"/>
       <path id="Rectangle-11_12" class="fil1" d="M9781.25 1489.58l770.83 0c23.01,0 41.67,18.66 41.67,41.67 0,23.01 -18.65,41.67 -41.67,41.67l-770.83 0c-23.01,0 -41.67,-18.65 -41.67,-41.67 0,-23.01 18.65,-41.67 41.67,-41.67z"/>
       <path class="fil6" d="M7822.92 1906.25l104.17 0c23.01,0 41.67,18.66 41.67,41.67l-0 -0c0,23.01 -18.65,41.67 -41.66,41.67l-104.17 -0c-23,0 -41.66,-18.65 -41.66,-41.66l-0.01 -0c0.01,-23 18.67,-41.66 41.67,-41.66z"/>
       <path class="fil6" d="M7822.92 2322.92l104.17 0c23.01,0 41.67,18.66 41.67,41.67l-0 -0c0,23.01 -18.65,41.67 -41.66,41.67l-104.17 0c-23,0 -41.66,-18.66 -41.66,-41.67l-0.01 -0c0.01,-23 18.67,-41.66 41.67,-41.66z"/>
       <path class="fil6" d="M7822.92 2739.58l104.17 0c23.01,0.01 41.67,18.67 41.67,41.67l-0 -0c0,23.01 -18.65,41.67 -41.66,41.67l-104.17 -0c-23,0 -41.66,-18.65 -41.66,-41.66l-0.01 -0c0.01,-23 18.67,-41.66 41.67,-41.66z"/>
       <path class="fil6" d="M7822.92 3156.25l104.17 0c23.01,0 41.67,18.66 41.67,41.67l-0 -0c0,23.01 -18.65,41.67 -41.66,41.67l-104.17 -0c-23,0 -41.66,-18.65 -41.66,-41.66l-0.01 -0c0.01,-23 18.67,-41.66 41.67,-41.66z"/>
       <path class="fil6" d="M7822.92 3989.58l104.17 0c23.01,0.01 41.67,18.67 41.67,41.67l-0 -0c0,23.01 -18.65,41.67 -41.66,41.67l-104.17 -0c-23,0 -41.66,-18.65 -41.66,-41.66l-0.01 -0c0.01,-23 18.67,-41.66 41.67,-41.66z"/>
       <path class="fil6" d="M7822.92 4406.25l104.17 0c23.01,0 41.67,18.66 41.67,41.67l-0 -0c0,23.01 -18.65,41.67 -41.66,41.67l-104.17 -0c-23,0 -41.66,-18.65 -41.66,-41.66l-0.01 -0c0.01,-23 18.67,-41.66 41.67,-41.66z"/>
       <path class="fil1" d="M8135.42 1906.25l645.83 0c23.02,0 41.67,18.66 41.67,41.67l-0 -0c0,23.01 -18.65,41.67 -41.66,41.67l-645.84 -0c-23,0 -41.66,-18.65 -41.66,-41.66l-0.01 -0c0.01,-23 18.67,-41.66 41.67,-41.66z"/>
       <path class="fil4" d="M8968.75 1906.25l1166.67 0c23.01,0 41.67,18.66 41.67,41.67l-0 -0c0,23.01 -18.65,41.67 -41.66,41.67l-1166.67 -0c-23,0 -41.66,-18.65 -41.66,-41.66l-0.01 -0c0.01,-23 18.67,-41.66 41.67,-41.66z"/>
       <path class="fil1" d="M10322.92 1906.25l437.5 0c23.01,0 41.67,18.66 41.67,41.67l-0 -0c0,23.01 -18.65,41.67 -41.66,41.67l-437.5 -0c-23,0 -41.66,-18.65 -41.66,-41.66l-0.01 -0c0.01,-23 18.67,-41.66 41.67,-41.66z"/>
       <path class="fil4" d="M8135.42 2322.92l437.5 0c23.01,0 41.67,18.66 41.67,41.67l-0 -0c0,23.01 -18.65,41.67 -41.66,41.67l-437.5 0c-23,0 -41.66,-18.66 -41.66,-41.67l-0.01 -0c0.01,-23 18.67,-41.66 41.67,-41.66z"/>
       <path class="fil1" d="M8760.42 2322.92l437.5 0c23.01,0 41.67,18.66 41.67,41.67l-0 -0c0,23.01 -18.65,41.67 -41.66,41.67l-437.5 0c-23,0 -41.66,-18.66 -41.66,-41.67l-0.01 -0c0.01,-23 18.67,-41.66 41.67,-41.66z"/>
       <path class="fil1" d="M9385.42 2322.92l229.17 0c23.01,0 41.67,18.66 41.67,41.67l-0 -0c0,23.01 -18.65,41.67 -41.66,41.67l-229.17 0c-23,0 -41.66,-18.66 -41.66,-41.67l-0.01 -0c0.01,-23 18.67,-41.66 41.67,-41.66z"/>
       <path class="fil1" d="M8135.42 2739.58l958.33 0c23.02,0.01 41.67,18.67 41.67,41.67l-0 -0c0,23.01 -18.65,41.67 -41.66,41.67l-958.34 -0c-23,0 -41.66,-18.65 -41.66,-41.66l-0.01 -0c0.01,-23 18.67,-41.66 41.67,-41.66z"/>
       <path class="fil1" d="M9281.25 2739.58l645.83 0c23.01,0.01 41.67,18.67 41.67,41.67l-0 -0c0,23.01 -18.65,41.67 -41.66,41.67l-645.84 -0c-23,0 -41.66,-18.65 -41.66,-41.66l-0.01 -0c0.01,-23 18.67,-41.66 41.67,-41.66z"/>
       <path class="fil1" d="M8135.42 3156.25l958.33 0c23.02,0 41.67,18.66 41.67,41.67l-0 -0c0,23.01 -18.65,41.67 -41.66,41.67l-958.34 -0c-23,0 -41.66,-18.65 -41.66,-41.66l-0.01 -0c0.01,-23 18.67,-41.66 41.67,-41.66z"/>
       <path class="fil4" d="M9281.25 3156.25l1270.83 0c23.01,0 41.67,18.66 41.67,41.67l-0 -0c0,23.01 -18.65,41.67 -41.66,41.67l-1270.84 -0c-23,0 -41.66,-18.65 -41.66,-41.66l-0.01 -0c0.01,-23 18.67,-41.66 41.67,-41.66z"/>
       <path class="fil1" d="M8135.42 3572.92l645.83 0c23.02,0 41.67,18.66 41.67,41.67l-0 -0c0,23.01 -18.65,41.67 -41.66,41.67l-645.84 0c-23,0 -41.66,-18.66 -41.66,-41.67l-0.01 -0c0.01,-23 18.67,-41.66 41.67,-41.66z"/>
       <path class="fil4" d="M8968.75 3572.92l645.83 0c23.01,0 41.67,18.66 41.67,41.67l-0 -0c0,23.01 -18.65,41.67 -41.66,41.67l-645.84 0c-23,0 -41.66,-18.66 -41.66,-41.67l-0.01 -0c0.01,-23 18.67,-41.66 41.67,-41.66z"/>
       <path class="fil1" d="M9802.08 3572.92l333.33 0c23.01,0 41.67,18.66 41.67,41.67l-0 -0c0,23.01 -18.65,41.67 -41.66,41.67l-333.34 0c-23,0 -41.66,-18.66 -41.66,-41.67l-0 -0c0,-23 18.66,-41.66 41.67,-41.66z"/>
       <path class="fil1" d="M8135.42 3989.58l1270.83 0c23.02,0.01 41.67,18.67 41.67,41.67l-0 -0c0,23.01 -18.65,41.67 -41.66,41.67l-1270.84 -0c-23,0 -41.66,-18.65 -41.66,-41.66l-0.01 -0c0.01,-23 18.67,-41.66 41.67,-41.66z"/>
       <path class="fil4" d="M8135.42 4406.25l541.67 0c23.01,0 41.67,18.66 41.67,41.67l-0 -0c0,23.01 -18.65,41.67 -41.66,41.67l-541.67 -0c-23,0 -41.66,-18.65 -41.66,-41.66l-0.01 -0c0.01,-23 18.67,-41.66 41.67,-41.66z"/>
      </g>
     </g>
     <g id="Group-68">
      <path id="Case_13" class="fil0 str0" d="M22312.5 3802.08l-5708.33 0 0 4062.46c0,80.57 32.65,153.49 85.45,206.28 52.8,52.78 125.74,85.43 206.32,85.43l5124.8 0c80.61,0 153.54,-32.65 206.32,-85.41 52.8,-52.79 85.45,-125.72 85.45,-206.29l0 -4062.46z"/>
      <path id="Case_14" class="fil3 str0" d="M22020.73 3281.25l-5124.8 0c-80.61,0 -153.53,32.63 -206.31,85.37 -52.81,52.77 -85.46,125.69 -85.46,206.22l0 312.57 5708.33 0 0 -312.57c0,-80.53 -32.66,-153.43 -85.46,-206.2 -52.8,-52.76 -125.74,-85.39 -206.3,-85.39z"/>
      <circle id="Oval-5_15" class="fil0" cx="17052.08" cy="3583.33" r="93.75"/>
      <circle id="Oval-5_16" class="fil1" cx="17364.58" cy="3583.33" r="93.75"/>
      <circle id="Oval-5_17" class="fil4" cx="17677.08" cy="3583.33" r="93.75"/>
      <g id="Group-61">
       <circle id="Oval-6_18" class="fil2 str2" cx="20135.41" cy="5979.17" r="1041.66"/>
       <polygon id="Rectangle-12" class="fil7 str3" points="20270.83,4812.5 20020.83,4812.5 20020.83,5062.5 20270.83,5062.5 "/>
       <polygon id="Rectangle-12_19" class="fil7 str3" points="20260.41,6895.83 20010.41,6895.83 20010.41,7145.83 20260.41,7145.83 "/>
       <polygon id="Rectangle-12_20" class="fil7 str3" points="19218.74,5864.58 18968.74,5864.58 18968.74,6114.58 19218.74,6114.58 "/>
       <line id="Line" class="fil2 str4" x1="21177.08" y1="5041.67" x2="21177.08" y2= "5822.91" />
       <line id="Line_21" class="fil2 str4" x1="21177.08" y1="6135.41" x2="21177.08" y2= "6916.67" />
       <circle id="Oval-5_22" class="fil3" cx="21177.08" cy="5010.41" r="125"/>
       <circle id="Oval-5_23" class="fil3" cx="21177.08" cy="6989.58" r="125"/>
       <polygon id="Rectangle-12_24" class="fil7 str3" points="21291.66,5864.58 21041.66,5864.58 21041.66,6114.58 21291.66,6114.58 "/>
      </g>
      <g id="Group-60">
       <path class="fil3" d="M17708.33 4677.08l479.17 0c69.02,0 125,55.98 125,125l0 479.17c0,69.02 -55.98,125 -125,125l-479.17 0c-69.02,0 -125,-55.98 -125,-125l-0 -479.17c0,-69.02 55.98,-125 125,-125z"/>
       <path class="fil4" d="M17708.33 5614.58l479.17 0c69.02,0 125,55.98 125,125l0 479.17c0,69.02 -55.98,125 -125,125l-479.17 0c-69.02,0 -125,-55.98 -125,-125l-0 -479.17c0,-69.02 55.98,-125 125,-125z"/>
       <path class="fil1" d="M17708.33 6552.08l479.17 0c69.02,0 125,55.98 125,125l0 479.17c0,69.02 -55.98,125 -125,125l-479.17 0c-69.02,0 -125,-55.98 -125,-125l-0 -479.17c0,-69.02 55.98,-125 125,-125z"/>
      </g>
     </g>
     <g id="Group-65">
      <g id="Group-64">
       <circle id="Oval-8" class="fil0 str0" cx="25302.08" cy="9489.58" r="625"/>
       <circle id="Oval-8_25" class="fil0 str0" cx="25302.08" cy="9489.58" r="364.58"/>
      </g>
      <circle id="Oval-8_26" class="fil7 str0" cx="24468.75" cy="8541.66" r="208.33"/>
      <path id="Rectangle-16" class="fil0 str0" d="M25322.18 8489.58l-1770.1 0c-11.51,0 -21.92,4.67 -29.46,12.2 -7.54,7.54 -12.2,17.96 -12.2,29.46l0 1750c0,57.53 23.31,109.61 61.02,147.31 37.7,37.7 89.78,61.02 147.31,61.02l1436.77 0c57.53,0 109.61,-23.31 147.31,-61.02 37.7,-37.7 61.02,-89.78 61.02,-147.31l0 -1750c0,-11.51 -4.67,-21.93 -12.2,-29.46 -7.54,-7.54 -17.96,-12.2 -29.46,-12.2z"/>
      <path id="Rectangle-16_27" class="fil4 str0" d="M24854.16 9052.08l-375 0c-23.01,0 -43.85,9.33 -58.93,24.41 -15.08,15.08 -24.41,35.91 -24.41,58.93l0 500c0,23.01 9.33,43.85 24.41,58.93 15.08,15.08 35.91,24.41 58.93,24.41l375 0c23.01,0 43.85,-9.33 58.93,-24.41 15.08,-15.08 24.41,-35.91 24.41,-58.93l0 -500c0,-23.01 -9.33,-43.85 -24.41,-58.93 -15.08,-15.08 -35.91,-24.41 -58.93,-24.41z"/>
      <line id="Line-2" class="fil2 str4" x1="24661.45" y1="8505.2" x2="24661.45" y2= "8979.17" />
     </g>
     <g id="Group-78">
      <path id="Oval-8_28" class="fil0 str5" d="M22322.91 9918.75c-169.14,0 -322.26,68.56 -433.11,179.4 -101.2,101.2 -167.15,237.65 -177.86,389.35l1221.93 0c-10.71,-151.7 -76.66,-288.15 -177.86,-389.35 -110.84,-110.84 -263.97,-179.4 -433.1,-179.4z"/>
      <path class="fil3" d="M22322.91 9927.08l0 0c23.01,0 41.67,18.66 41.67,41.67l0 52.09c0,23 -18.66,41.66 -41.67,41.66l0 0c-23.01,-0 -41.67,-18.66 -41.67,-41.67l-0 -52.08c0,-23.01 18.66,-41.67 41.67,-41.67z"/>
     </g>
     <g id="Group-27">
      <path id="Rectangle-17" class="fil1 str0" d="M3177.09 9260.41l-2520.83 0c-169.72,0 -323.36,68.79 -434.58,180.01 -111.22,111.22 -180.01,264.87 -180.01,434.58 0,169.71 68.79,323.36 180.01,434.58 111.22,111.22 264.87,180.01 434.58,180.01l2520.83 0c17.26,0 32.88,-7 44.19,-18.31 11.31,-11.31 18.31,-26.93 18.31,-44.19l0 -96.73c0,-21.87 -8.45,-41.87 -22.35,-56.8 -13.9,-14.93 -33.26,-24.78 -55.07,-26.33 -144.2,-10.26 -251.39,-46.86 -323.25,-106.34 -75.72,-62.68 -114.98,-150.83 -114.98,-265.89 0,-115.22 39.34,-204.25 115.93,-268.43 72.39,-60.65 180.46,-99.17 326.27,-112.28 20.86,-2.48 39.19,-12.56 52.31,-27.29 13.18,-14.78 21.13,-34.26 21.13,-55.45l0 -88.64c0,-17.26 -7,-32.88 -18.31,-44.19 -11.31,-11.31 -26.93,-18.31 -44.19,-18.31z"/>
      <path id="Rectangle-19" class="fil0 str0" d="M3049.86 9500l-2404.02 0c-103.55,0 -197.3,41.97 -265.17,109.83 -67.86,67.86 -109.83,161.61 -109.83,265.17 0,103.56 41.98,197.3 109.83,265.17 67.86,67.86 161.61,109.83 265.17,109.83 1134.33,0 1940.92,2.17 2419.76,6.49l0 0c-83.81,-22.63 -179.94,-54.71 -248.19,-124.81 -54.83,-56.31 -93.46,-136.49 -93.46,-256.68 0,-121.32 39.36,-201.8 95.01,-257.92 63.87,-64.41 151.64,-95.81 230.91,-117.08z"/>
      <path id="Rectangle-18" class="fil3" d="M603.39 9968.75l2105.72 0c22.58,0 40.89,18.65 40.89,41.67 0,23.01 -18.31,41.67 -40.89,41.67l-2105.72 0c-22.58,0 -40.89,-18.65 -40.89,-41.67 0,-23.01 18.31,-41.67 40.89,-41.67z"/>
      <path id="Rectangle-18_29" class="fil3" d="M603.39 9697.91l2105.72 0c22.58,0 40.89,18.65 40.89,41.67 0,23.01 -18.31,41.67 -40.89,41.67l-2105.72 0c-22.58,0 -40.89,-18.66 -40.89,-41.67 0,-23.01 18.31,-41.67 40.89,-41.67z"/>
     </g>
     <g id="Group-94">
      <path id="Shape" class="fil8" d="M2605.78 7180.8c-51.12,-45.44 -102.24,-90.89 -153.36,-136.34 -81.46,-72.35 -162.7,-144.93 -244.17,-217.27 -18.67,-16.46 -37.35,-33.16 -55.79,-49.62 0,21.8 0,43.82 0,65.62 51.12,-45.44 102.24,-90.89 153.36,-136.34 81.46,-72.35 162.7,-144.93 244.17,-217.27 18.67,-16.46 37.35,-33.16 55.79,-49.62 18.21,-16.23 17.98,-49.39 0,-65.62 -19.37,-17.85 -46.45,-17.39 -66.06,0 -51.12,45.45 -102.24,90.89 -153.36,136.34 -81.46,72.35 -162.7,144.93 -244.17,217.27 -18.67,16.46 -37.35,33.16 -55.79,49.62 -17.98,16 -17.98,49.62 0,65.62 51.12,45.45 102.24,90.9 153.36,136.35 81.46,72.35 162.7,144.92 244.17,217.27 18.67,16.46 37.35,33.16 55.79,49.62 18.21,16.23 48.32,19.25 66.06,0 16.34,-17.62 19.37,-48.23 0,-65.62l0 0z"/>
      <path id="Shape_30" class="fil8" d="M3384.23 6440.06c51.12,45.44 102.24,90.89 153.36,136.34 81.46,72.35 162.7,144.93 244.17,217.27 18.67,16.46 37.35,33.16 55.79,49.62 0,-21.8 0,-43.82 0,-65.62 -51.12,45.44 -102.24,90.89 -153.36,136.34 -81.46,72.35 -162.7,144.93 -244.17,217.27 -18.67,16.46 -37.35,33.16 -55.79,49.62 -18.21,16.23 -17.98,49.39 0,65.62 19.37,17.85 46.45,17.39 66.06,0 51.12,-45.45 102.24,-90.89 153.36,-136.34 81.46,-72.35 162.7,-144.93 244.17,-217.27 18.67,-16.46 37.35,-33.16 55.79,-49.62 17.98,-16 17.98,-49.62 0,-65.62 -51.12,-45.45 -102.24,-90.9 -153.36,-136.35 -81.46,-72.35 -162.7,-144.92 -244.17,-217.27 -18.67,-16.46 -37.35,-33.16 -55.79,-49.62 -18.21,-16.23 -48.32,-19.25 -66.06,0 -16.34,17.62 -19.37,48.23 0,65.62l0 0z"/>
      <path id="Shape_31" class="fil8" d="M2828.52 7453.87c14.01,-41.74 27.78,-83.48 41.78,-125.44 33.38,-100.4 66.76,-200.57 100.14,-300.98 40.15,-121.04 80.3,-241.85 120.68,-362.89 34.78,-104.58 69.56,-209.15 104.34,-313.73 16.57,-50.78 35.25,-101.33 50.65,-152.81 0.24,-0.69 0.47,-1.39 0.7,-2.09 7.7,-22.96 -8.87,-51.71 -32.68,-57.04 -25.68,-5.8 -49.25,7.65 -57.42,32.46 -14.01,41.74 -27.78,83.48 -41.78,125.44 -33.38,100.41 -66.76,200.57 -100.14,300.98 -40.15,121.04 -80.3,241.85 -120.68,362.89 -34.78,104.58 -69.56,209.15 -104.34,313.73 -16.57,50.55 -35.25,101.1 -50.65,152.57 -0.23,0.7 -0.47,1.39 -0.7,2.09 -7.7,22.96 8.87,51.71 32.68,57.04 25.68,5.8 49.25,-7.65 57.42,-32.23l0 0z"/>
     </g>
    </g>
   </g>
  </g>
 </g>
</svg>
